# xmcd
#
# Track frame offsets:
#	150
#	11790
#	24482
#	39512
#	54320
#	71502
#	89612
#	105802
#	122620
#
# Disc length: 1831 seconds
#
# Revision: 1
# Processed by: cddbd v1.4b42PL1 Copyright (c) Steve Scherf et al.
# Submitted via: audiograbber 1.80.04
#
DISCID=68072509
DTITLE=Various Artist - Lone Star Cowboys Vol. 7
DYEAR=1991
DGENRE=Country
TTITLE0=Steve Earle - Guitar Town
TTITLE1=Asleep At the Wheel - Keepin' Me Up Nights
TTITLE2=Don Williams - Just As Long As I Have You
TTITLE3=Larry gatlin - No. 1 Heartache Place
TTITLE4=Johnny Rodriguez - Back To Stay
TTITLE5=Lyle Lovett - If I were The Man You Wanted
TTITLE6=Good Times - Dan Seals
TTITLE7=Gene Watson - Nothing Sure Looked Good On You
TTITLE8=Johnny Lee - I'm Not Over You
EXTD=
EXTT0=
EXTT1=
EXTT2=
EXTT3=
EXTT4=
EXTT5=
EXTT6=
EXTT7=
EXTT8=
PLAYORDER=
